<svg xmlns="http://www.w3.org/2000/svg" viewBox="0 0 96 96" role="img" aria-labelledby="title desc">
  <title>Temporary QR scanner icon</title>
  <desc>Placeholder scanner graphic; it is not an encoded QR code.</desc>
  <rect width="96" height="96" rx="18" fill="#635bba"/>
  <g fill="none" stroke="#fff" stroke-width="6" stroke-linecap="round">
    <path d="M18 36V22a4 4 0 0 1 4-4h14M60 18h14a4 4 0 0 1 4 4v14M78 60v14a4 4 0 0 1-4 4H60M36 78H22a4 4 0 0 1-4-4V60"/>
    <path d="M30 48h36"/>
  </g>
  <rect x="31" y="31" width="11" height="11" rx="2" fill="#fff"/>
  <rect x="54" y="31" width="11" height="11" rx="2" fill="#fff"/>
  <rect x="31" y="55" width="11" height="11" rx="2" fill="#fff"/>
  <path fill="#fff" d="M54 54h6v6h-6zm6 6h6v6h-6z"/>
</svg>
